<mxfile host="app.diagrams.net" modified="2024-06-05T07:25:30.531Z" agent="Mozilla/5.0 (Windows NT 10.0; Win64; x64) AppleWebKit/537.36 (KHTML, like Gecko) Chrome/125.0.0.0 Safari/537.36 Edg/125.0.0.0" etag="MA_uFuocBa8Jk0WSGhJy" version="24.4.13" type="github">
  <diagram name="第 1 页" id="JNcSthFR1RmTdveEPeOF">
    <mxGraphModel dx="1213" dy="746" grid="1" gridSize="10" guides="1" tooltips="1" connect="1" arrows="1" fold="1" page="1" pageScale="1" pageWidth="827" pageHeight="1169" math="0" shadow="0">
      <root>
        <mxCell id="0" />
        <mxCell id="1" parent="0" />
        <mxCell id="SIVPFdbWfGKzS279hXtE-1" value="func" style="rounded=0;whiteSpace=wrap;html=1;fillColor=#d5e8d4;strokeColor=#82b366;" vertex="1" parent="1">
          <mxGeometry x="70" y="330" width="50" height="30" as="geometry" />
        </mxCell>
        <mxCell id="SIVPFdbWfGKzS279hXtE-3" value="arg1" style="rounded=0;whiteSpace=wrap;html=1;fillColor=#d5e8d4;strokeColor=#82b366;" vertex="1" parent="1">
          <mxGeometry x="120" y="330" width="50" height="30" as="geometry" />
        </mxCell>
        <mxCell id="SIVPFdbWfGKzS279hXtE-4" value="arg2" style="rounded=0;whiteSpace=wrap;html=1;fillColor=#d5e8d4;strokeColor=#82b366;" vertex="1" parent="1">
          <mxGeometry x="170" y="330" width="50" height="30" as="geometry" />
        </mxCell>
        <mxCell id="SIVPFdbWfGKzS279hXtE-5" value="..." style="rounded=0;whiteSpace=wrap;html=1;fillColor=#d5e8d4;strokeColor=#82b366;" vertex="1" parent="1">
          <mxGeometry x="220" y="330" width="50" height="30" as="geometry" />
        </mxCell>
        <mxCell id="SIVPFdbWfGKzS279hXtE-6" value="argn" style="rounded=0;whiteSpace=wrap;html=1;fillColor=#d5e8d4;strokeColor=#82b366;" vertex="1" parent="1">
          <mxGeometry x="270" y="330" width="50" height="30" as="geometry" />
        </mxCell>
        <mxCell id="SIVPFdbWfGKzS279hXtE-7" value="var1" style="rounded=0;whiteSpace=wrap;html=1;fillColor=#d5e8d4;strokeColor=#82b366;" vertex="1" parent="1">
          <mxGeometry x="320" y="330" width="50" height="30" as="geometry" />
        </mxCell>
        <mxCell id="SIVPFdbWfGKzS279hXtE-8" value="var2" style="rounded=0;whiteSpace=wrap;html=1;fillColor=#d5e8d4;strokeColor=#82b366;" vertex="1" parent="1">
          <mxGeometry x="370" y="330" width="50" height="30" as="geometry" />
        </mxCell>
        <mxCell id="SIVPFdbWfGKzS279hXtE-9" value="..." style="rounded=0;whiteSpace=wrap;html=1;fillColor=#d5e8d4;strokeColor=#82b366;" vertex="1" parent="1">
          <mxGeometry x="420" y="330" width="50" height="30" as="geometry" />
        </mxCell>
        <mxCell id="SIVPFdbWfGKzS279hXtE-10" value="varm" style="rounded=0;whiteSpace=wrap;html=1;fillColor=#d5e8d4;strokeColor=#82b366;" vertex="1" parent="1">
          <mxGeometry x="470" y="330" width="50" height="30" as="geometry" />
        </mxCell>
        <mxCell id="SIVPFdbWfGKzS279hXtE-11" value="..." style="rounded=0;whiteSpace=wrap;html=1;fillColor=#d5e8d4;strokeColor=#82b366;" vertex="1" parent="1">
          <mxGeometry x="520" y="330" width="50" height="30" as="geometry" />
        </mxCell>
        <mxCell id="SIVPFdbWfGKzS279hXtE-15" value="R[0]" style="rounded=0;whiteSpace=wrap;html=1;dashed=1;dashPattern=8 8;fillColor=#ffe6cc;strokeColor=#d79b00;" vertex="1" parent="1">
          <mxGeometry x="120" y="290" width="50" height="30" as="geometry" />
        </mxCell>
        <mxCell id="SIVPFdbWfGKzS279hXtE-16" value="R[1]" style="rounded=0;whiteSpace=wrap;html=1;dashed=1;dashPattern=8 8;fillColor=#ffe6cc;strokeColor=#d79b00;" vertex="1" parent="1">
          <mxGeometry x="170" y="290" width="50" height="30" as="geometry" />
        </mxCell>
        <mxCell id="SIVPFdbWfGKzS279hXtE-17" value="..." style="rounded=0;whiteSpace=wrap;html=1;dashed=1;dashPattern=8 8;fillColor=#ffe6cc;strokeColor=#d79b00;" vertex="1" parent="1">
          <mxGeometry x="220" y="290" width="50" height="30" as="geometry" />
        </mxCell>
        <mxCell id="SIVPFdbWfGKzS279hXtE-18" value="R[n]" style="rounded=0;whiteSpace=wrap;html=1;dashed=1;dashPattern=8 8;fillColor=#ffe6cc;strokeColor=#d79b00;" vertex="1" parent="1">
          <mxGeometry x="270" y="290" width="50" height="30" as="geometry" />
        </mxCell>
        <mxCell id="SIVPFdbWfGKzS279hXtE-19" value="R[n+1]" style="rounded=0;whiteSpace=wrap;html=1;dashed=1;dashPattern=8 8;fillColor=#ffe6cc;strokeColor=#d79b00;" vertex="1" parent="1">
          <mxGeometry x="320" y="290" width="50" height="30" as="geometry" />
        </mxCell>
        <mxCell id="SIVPFdbWfGKzS279hXtE-20" value="R[n+2]" style="rounded=0;whiteSpace=wrap;html=1;dashed=1;dashPattern=8 8;fillColor=#ffe6cc;strokeColor=#d79b00;" vertex="1" parent="1">
          <mxGeometry x="370" y="290" width="50" height="30" as="geometry" />
        </mxCell>
        <mxCell id="SIVPFdbWfGKzS279hXtE-21" value="" style="rounded=0;whiteSpace=wrap;html=1;dashed=1;dashPattern=8 8;fillColor=#ffe6cc;strokeColor=#d79b00;" vertex="1" parent="1">
          <mxGeometry x="420" y="290" width="50" height="30" as="geometry" />
        </mxCell>
        <mxCell id="SIVPFdbWfGKzS279hXtE-22" value="R[n+m]" style="rounded=0;whiteSpace=wrap;html=1;dashed=1;dashPattern=8 8;fillColor=#ffe6cc;strokeColor=#d79b00;" vertex="1" parent="1">
          <mxGeometry x="470" y="290" width="50" height="30" as="geometry" />
        </mxCell>
        <mxCell id="SIVPFdbWfGKzS279hXtE-23" value="..." style="rounded=0;whiteSpace=wrap;html=1;dashed=1;dashPattern=8 8;fillColor=#ffe6cc;strokeColor=#d79b00;" vertex="1" parent="1">
          <mxGeometry x="520" y="290" width="50" height="30" as="geometry" />
        </mxCell>
      </root>
    </mxGraphModel>
  </diagram>
</mxfile>
